#!OML:ASF F:\VICON\USERDATA\INSTALL\rory3\rory3.ASF
:FULLY-SPECIFIED
:DEGREES
575
root 3.32841 17.5554 4.04925 -3.00552 -72.8252 4.98748
lowerback 4.72037 1.42534 -2.42891
upperback 0.11937 1.81025 1.88645
thorax -2.66101 0.941418 3.18204
lowerneck -17.859 -6.67702 -14.0859
upperneck -22.3479 -6.39894 13.7489
head -2.97551 -3.00901 6.57971
rclavicle -2.75317e-014 1.51076e-014
rhumerus 29.3343 -18.3097 -21.1531
rradius 90.1112
rwrist 10.2857
rhand -30.5119 8.09928
rfingers 7.12502
rthumb -3.81183 -21.8464
lclavicle -2.75317e-014 1.51076e-014
lhumerus 15.6803 11.6688 27.7756
lradius 78.7896
lwrist -1.79853
lhand -18.1496 19.8343
lfingers 7.12502
lthumb 8.12597 49.658
rfemur -13.2961 1.16043 6.14871
rtibia 42.9451
rfoot -26.7655 -4.97235
rtoes -2.25399
lfemur -14.9088 -4.09095 -16.7003
ltibia 27.7971
lfoot -17.7267 -8.7271
ltoes -25.1239
576
root 3.31267 17.5559 4.01847 -2.68097 -72.9574 4.615
lowerback 4.67688 1.50335 -2.22123
upperback 0.208775 1.92581 1.93483
thorax -2.54771 0.993484 3.1087
lowerneck -18.135 -6.74461 -14.0556
upperneck -22.2935 -6.4551 13.8317
head -2.90968 -3.03571 6.58887
rclavicle 3.68746e-014 7.95139e-016
rhumerus 27.2646 -17.4868 -21.6399
rradius 91.8511
rwrist 10.1674
rhand -30.8074 8.42585
rfingers 7.12502
rthumb -4.09712 -21.5145
lclavicle 3.68746e-014 7.95139e-016
lhumerus 13.915 11.0362 29.5849
lradius 79.6143
lwrist -1.92779
lhand -18.0671 20.3548
lfingers 7.12502
lthumb 8.20553 50.1755
rfemur -13.1152 1.39649 6.01432
rtibia 42.5055
rfoot -26.6693 -5.23803
rtoes -2.52688
lfemur -14.7655 -4.11363 -16.4634
ltibia 27.6565
lfoot -17.8303 -8.40016
ltoes -25.9374
577
root 3.29594 17.5557 3.98419 -2.57326 -73.0955 4.44397
lowerback 4.66705 1.47366 -2.13739
upperback 0.256909 1.88993 1.92988
thorax -2.48706 0.972927 3.05976
lowerneck -18.1467 -6.5475 -13.5934
upperneck -22.3595 -6.29037 13.6193
head -2.97544 -2.98569 6.45564
rclavicle 3.07619e-014 -1.59028e-014
rhumerus 25.3234 -16.4786 -22.6309
rradius 93.5853
rwrist 10.2507
rhand -30.916 8.98297
rfingers 7.12502
rthumb -4.20206 -20.9553
lclavicle 3.07619e-014 -1.59028e-014
lhumerus 11.8296 10.3196 30.8629
lradius 80.3735
lwrist -1.67064
lhand -18.6749 20.5989
lfingers 7.12502
lthumb 7.61891 50.4417
rfemur -12.8906 1.71263 5.82387
rtibia 42.0821
rfoot -26.6525 -5.48787
rtoes -2.55318
lfemur -14.5887 -4.10625 -16.2789
ltibia 27.502
lfoot -17.8365 -8.22038
ltoes -26.2171
578
root 3.27513 17.5611 3.95063 -2.76004 -73.2087 4.64929
lowerback 4.51733 1.48277 -2.26683
upperback 0.241123 1.90078 2.07518
thorax -2.42953 0.979939 3.28573
lowerneck -17.7976 -6.45043 -13.7359
upperneck -22.4999 -6.1684 13.6671
head -3.07405 -2.92511 6.5177
rclavicle 9.39258e-015 1.35174e-014
rhumerus 23.1743 -15.3351 -23.1362
rradius 95.3909
rwrist 10.395
rhand -31.0132 9.31716
rfingers 7.12502
rthumb -4.29593 -20.6193
lclavicle 9.39258e-015 1.35174e-014
lhumerus 9.50163 9.49833 32.3807
lradius 81.1058
lwrist -1.23351
lhand -19.0331 20.8272
lfingers 7.12502
lthumb 7.27315 50.6822
rfemur -12.7152 2.00278 5.48551
rtibia 41.6759
rfoot -26.4645 -5.63306
rtoes -1.66727
lfemur -14.4555 -4.15816 -16.1961
ltibia 27.3434
lfoot -17.7807 -8.14716
ltoes -25.9374
579
root 3.25333 17.5651 3.91806 -3.14122 -73.3105 5.08349
lowerback 4.34612 1.53919 -2.47368
upperback 0.214232 1.97198 2.23417
thorax -2.37949 1.0183 3.56611
lowerneck -17.5315 -6.40212 -13.9401
upperneck -22.6167 -6.09162 13.7252
head -3.14711 -2.87961 6.58771
rclavicle 9.18385e-014 7.15625e-015
rhumerus 20.8212 -14.1807 -23.3733
rradius 97.1939
rwrist 10.3977
rhand -31.2711 9.33239
rfingers 7.12502
rthumb -4.54496 -20.5989
lclavicle 9.18385e-014 7.15625e-015
lhumerus 7.15362 8.69427 34.2106
lradius 81.7757
lwrist -0.884089
lhand -19.1118 21.2751
lfingers 7.12502
lthumb 7.19726 51.1327
rfemur -12.5825 2.18666 5.0828
rtibia 41.2779
rfoot -26.1512 -5.95455
rtoes -1.22016
lfemur -14.3434 -4.14165 -16.1962
ltibia 27.1871
lfoot -17.7116 -8.15673
ltoes -25.6966
580
root 3.23382 17.5623 3.88003 -3.25637 -73.3794 5.15311
lowerback 4.29695 1.52003 -2.44902
upperback 0.295245 1.94673 2.19103
thorax -2.26395 1.00211 3.51138
lowerneck -17.7902 -6.22312 -13.3844
upperneck -22.5543 -5.93961 13.4826
head -3.14123 -2.8352 6.41538
rclavicle -4.44284e-014 -2.3059e-014
rhumerus 18.5421 -13.078 -24.346
rradius 98.7367
rwrist 10.6268
rhand -31.6446 9.56514
rfingers 7.12502
rthumb -4.9056 -20.3581
lclavicle -4.44284e-014 -2.3059e-014
lhumerus 5.01989 8.26503 35.826
lradius 82.3906
lwrist -0.68039
lhand -18.975 21.475
lfingers 7.12502
lthumb 7.32932 51.3281
rfemur -12.3629 2.34302 4.81997
rtibia 40.8864
rfoot -26.2255 -6.14689
rtoes -1.13866
lfemur -14.1612 -4.2391 -16.0773
ltibia 27.0167
lfoot -17.677 -7.97982
ltoes -25.715
581
root 3.21261 17.5629 3.84269 -3.02168 -73.4482 4.90835
lowerback 4.16896 1.53483 -2.23637
upperback 0.397925 1.97668 2.18702
thorax -2.08139 1.0104 3.38972
lowerneck -18.1401 -6.22609 -13.1953
upperneck -22.3904 -5.95198 13.3742
head -3.0538 -2.84429 6.33244
rclavicle 3.94091e-014 1.03368e-014
rhumerus 16.1078 -11.9611 -25.3601
rradius 100.2
rwrist 11.0431
rhand -32.1099 9.77015
rfingers 7.12502
rthumb -5.35483 -20.1422
lclavicle 3.94091e-014 1.03368e-014
lhumerus 3.07776 8.09263 37.7873
lradius 82.6325
lwrist -0.514377
lhand -18.6781 21.4716
lfingers 7.12502
lthumb 7.61582 51.3145
rfemur -12.1837 2.52611 4.65965
rtibia 40.5083
rfoot -26.3202 -6.41479
rtoes -1.0222
lfemur -13.9989 -4.64154 -15.8348
ltibia 26.8258
lfoot -17.5782 -7.62817
ltoes -25.3384
582
root 3.19014 17.565 3.80696 -3.17309 -73.6123 5.14421
lowerback 3.98867 1.58561 -2.18287
upperback 0.451151 2.04908 2.22603
thorax -1.93067 1.04319 3.40074
lowerneck -18.3436 -6.23073 -13.2968
upperneck -22.2702 -5.92464 13.3603
head -2.9919 -2.81754 6.33752
rclavicle -2.21645e-014 -1.59028e-015
rhumerus 13.5781 -10.614 -26.4238
rradius 101.624
rwrist 11.6347
rhand -32.5991 9.80469
rfingers 7.12502
rthumb -5.82719 -20.0952
lclavicle -2.21645e-014 -1.59028e-015
lhumerus 0.998535 8.13545 40.0419
lradius 82.3979
lwrist -0.261559
lhand -18.3405 21.36
lfingers 7.12502
lthumb 7.94175 51.1908
rfemur -12.1271 2.70319 4.3172
rtibia 40.1507
rfoot -26.1114 -6.62338
rtoes -0.379727
lfemur -13.866 -4.96845 -15.7248
ltibia 26.5943
lfoot -17.4129 -7.23522
ltoes -24.6836
583
root 3.16665 17.5647 3.76403 -3.87692 -73.7864 5.88307
lowerback 3.92077 1.62887 -2.34536
upperback 0.51968 2.0994 2.15177
thorax -1.82897 1.06709 3.41531
lowerneck -18.3632 -6.09746 -12.9627
upperneck -22.4586 -5.82514 13.1573
head -3.08148 -2.79225 6.22926
rclavicle -1.19271e-015 9.54166e-015
rhumerus 11.0367 -9.21333 -27.9088
rradius 102.821
rwrist 12.3631
rhand -32.9164 9.94173
rfingers 7.12502
rthumb -6.13349 -19.9495
lclavicle -1.19271e-015 9.54166e-015
lhumerus -1.10166 8.30072 42.1155
lradius 82.1643
lwrist -0.0258995
lhand -18.1041 21.1162
lfingers 7.12502
lthumb 8.16983 50.9383
rfemur -12.0192 2.99918 3.85044
rtibia 39.7863
rfoot -25.865 -6.7244
rtoes 0.656965
lfemur -13.6438 -5.08631 -15.7882
ltibia 26.3225
lfoot -17.4011 -6.73704
ltoes -25.3854
584
root 3.14047 17.5646 3.71605 -4.66735 -73.9323 6.68483
lowerback 3.9642 1.71279 -2.61513
upperback 0.487442 2.19947 2.10828
thorax -1.90271 1.12105 3.51467
lowerneck -17.9505 -6.00591 -12.8018
upperneck -22.8732 -5.77397 13.1017
head -3.27916 -2.79175 6.21394
rclavicle 5.74488e-014 2.78299e-014
rhumerus 8.28449 -7.80946 -29.2437
rradius 103.862
rwrist 12.8572
rhand -33.1611 10.2592
rfingers 7.12502
rthumb -6.3697 -19.625
lclavicle 5.74488e-014 2.78299e-014
lhumerus -3.23329 8.16232 44.1076
lradius 82.2035
lwrist 0.749714
lhand -18.3501 20.6448
lfingers 7.12502
lthumb 7.93242 50.4759
rfemur -11.8784 3.28219 3.40423
rtibia 39.4087
rfoot -25.726 -6.77771
rtoes 1.59541
lfemur -13.3981 -5.21421 -15.8606
ltibia 26.0145
lfoot -17.3026 -6.33562
ltoes -25.7314
585
root 3.11194 17.5671 3.66903 -5.0156 -74.1348 7.04856
lowerback 3.97972 1.87258 -2.76623
upperback 0.437362 2.40688 2.12466
thorax -1.98684 1.2284 3.60264
lowerneck -17.6668 -6.08722 -12.8966
upperneck -23.081 -5.86499 13.311
head -3.3545 -2.84258 6.30795
rclavicle -8.03587e-014 -2.70347e-014
rhumerus 5.30809 -6.41915 -30.2145
rradius 104.92
rwrist 13.0833
rhand -33.3609 10.3044
rfingers 7.12502
rthumb -6.56264 -19.5739
lclavicle -8.03587e-014 -2.70347e-014
lhumerus -5.64214 8.38356 46.572
lradius 81.937
lwrist 1.10981
lhand -18.8816 19.8588
lfingers 7.12502
lthumb 7.41942 49.7087
rfemur -11.737 3.60492 3.11339
rtibia 38.9846
rfoot -25.9161 -6.87168
rtoes 0.830204
lfemur -13.1843 -5.18541 -15.7658
ltibia 25.7445
lfoot -17.1798 -6.377
ltoes -25.0799
586
root 3.0823 17.566 3.62305 -5.42068 -74.3152 7.53769
lowerback 4.01832 1.96824 -2.88269
upperback 0.337548 2.52984 2.12962
thorax -2.12699 1.29521 3.6625
lowerneck -17.6076 -6.19023 -13.1417
upperneck -23.101 -5.92795 13.6581
head -3.33134 -2.86638 6.46113
rclavicle 5.53615e-014 1.82882e-014
rhumerus 2.49802 -4.98954 -31.2155
rradius 105.812
rwrist 13.1596
rhand -33.3554 10.1241
rfingers 7.12502
rthumb -6.5573 -19.7544
lclavicle 5.53615e-014 1.82882e-014
lhumerus -7.66537 8.07632 48.2468
lradius 81.7256
lwrist 1.152
lhand -18.4105 20.6405
lfingers 7.12502
lthumb 7.87416 50.4739
rfemur -11.6267 3.88588 2.77714
rtibia 38.477
rfoot -25.8651 -6.99569
rtoes 0.0934719
lfemur -13.051 -5.4233 -15.7208
ltibia 25.5732
lfoot -17.1885 -5.96833
ltoes -25.3593
587
root 3.05879 17.5642 3.5749 -4.92082 -74.5144 7.18702
lowerback 4.04937 2.00673 -2.91014
upperback 0.270556 2.58363 2.38415
thorax -2.23143 1.32608 3.93627
lowerneck -17.6519 -6.17877 -13.6477
upperneck -23.1976 -5.81716 13.8377
head -3.34723 -2.78027 6.61735
rclavicle 1.23246e-014 1.11319e-014
rhumerus 0.0933867 -3.84346 -32.3862
rradius 106.263
rwrist 13.2
rhand -33.1753 10.1101
rfingers 7.12502
rthumb -6.38341 -19.7737
lclavicle 1.23246e-014 1.11319e-014
lhumerus -9.99509 8.26083 50.3257
lradius 81.3252
lwrist 1.40559
lhand -18.9081 21.9437
lfingers 7.12502
lthumb 7.39382 51.7945
rfemur -11.6285 4.33346 2.73001
rtibia 37.8712
rfoot -25.64 -7.23683
rtoes 0.481488
lfemur -13.0836 -5.81336 -15.3992
ltibia 25.4553
lfoot -17.1253 -5.31972
ltoes -25.6363
588
root 3.03538 17.5624 3.52478 -3.74448 -74.7298 6.08308
lowerback 3.63677 1.90576 -2.02824
upperback 0.613746 2.4834 2.11712
thorax -1.58789 1.25187 3.1889
lowerneck -17.8896 -6.03903 -13.4157
upperneck -23.6118 -5.61487 14.1948
head -3.45244 -2.71986 6.7231
rclavicle 2.07233e-014 3.97569e-015
rhumerus -2.09843 -3.37037 -34.8472
rradius 106.425
rwrist 13.4462
rhand -32.9055 10.4578
rfingers 7.12502
rthumb -6.12302 -19.4337
lclavicle 2.07233e-014 3.97569e-015
lhumerus -11.4844 8.85379 51.413
lradius 80.6981
lwrist 1.44044
lhand -18.7234 22.2098
lfingers 7.12502
lthumb 7.57212 52.0542
rfemur -11.5576 4.80729 2.90521
rtibia 37.1982
rfoot -25.7008 -7.10362
rtoes 1.67754
lfemur -13.0873 -5.78435 -14.8461
ltibia 25.3448
lfoot -16.9878 -5.27458
ltoes -25.465
589
root 3.00085 17.5566 3.47045 -4.78329 -74.8539 7.04822
lowerback 3.54934 1.96792 -2.12158
upperback 0.862671 2.55896 1.89986
thorax -1.28261 1.2823 3.0211
lowerneck -18.1525 -6.05393 -13.2337
upperneck -23.7158 -5.6358 14.244
head -3.44834 -2.74496 6.7065
rclavicle -7.05686e-015 8.74653e-015
rhumerus -4.72401 -2.72031 -36.851
rradius 106.518
rwrist 13.5514
rhand -32.5643 10.5296
rfingers 7.12502
rthumb -5.79354 -19.3712
lclavicle -7.05686e-015 8.74653e-015
lhumerus -12.999 8.9842 52.8262
lradius 80.1005
lwrist 1.61353
lhand -18.6633 22.2657
lfingers 7.12502
lthumb 7.63015 52.108
rfemur -11.1921 4.984 2.47098
rtibia 36.4832
rfoot -25.7254 -7.04711
rtoes 1.80743
lfemur -12.8156 -5.79025 -14.9254
ltibia 25.2591
lfoot -16.9604 -5.29144
ltoes -25.2913
